PathFileType	4	(X/Y/Z)	markers
DataRate	CameraRate	NumFrames	NumMarkers	Units	OrigDataRate	OrigDataStartFrame	OrigNumFrames
200	200	9	39	mm	200	1	252
Frame#	Time	RASI			LASI			RPSI			LPSI			RTH1			RTH2			RTH3			RTH4			RLFC			RTB1			RTB2			RTB3			RTB4			RLMAL			RCAL			RTOE			RMT5			LTH1			LTH2			LTH3			LTH4			LLFC			LTB1			LTB2			LTB3			LTB4			LLMAL			LCAL			LTOE			LMT5			C7			T10			CLAV			RACR			LACR			RLEL			RFAradius			LLEL			LFAradius		
		X1	Y1	Z1	X2	Y2	Z2	X3	Y3	Z3	X4	Y4	Z4	X5	Y5	Z5	X6	Y6	Z6	X7	Y7	Z7	X8	Y8	Z8	X9	Y9	Z9	X10	Y10	Z10	X11	Y11	Z11	X12	Y12	Z12	X13	Y13	Z13	X14	Y14	Z14	X15	Y15	Z15	X16	Y16	Z16	X17	Y17	Z17	X18	Y18	Z18	X19	Y19	Z19	X20	Y20	Z20	X21	Y21	Z21	X22	Y22	Z22	X23	Y23	Z23	X24	Y24	Z24	X25	Y25	Z25	X26	Y26	Z26	X27	Y27	Z27	X28	Y28	Z28	X29	Y29	Z29	X30	Y30	Z30	X31	Y31	Z31	X32	Y32	Z32	X33	Y33	Z33	X34	Y34	Z34	X35	Y35	Z35	X36	Y36	Z36	X37	Y37	Z37	X38	Y38	Z38	X39	Y39	Z39
1	0.000000	-161.362993	1012.384825	717.264916	-176.832807	1038.116684	484.486719	-323.272352	1069.209909	662.709070	-334.557593	1073.903354	565.820121	-256.110357	754.257996	753.602971	-200.332344	737.256281	724.558075	-234.237330	639.533272	714.155365	-277.294515	648.639445	738.251542	-329.879566	525.201750	720.418390	-453.325757	491.583999	744.101942	-430.218906	431.047352	724.044394	-533.238917	408.924736	701.878261	-550.684995	462.539673	734.217806	-745.734077	397.465785	703.695174	-798.807880	453.083231	653.316309	-757.749457	237.317109	603.154013	-773.809247	259.181417	705.717599	-130.462651	786.448614	425.985834	-106.896661	804.578374	464.828365	-72.382049	710.879031	493.749490	-103.627163	682.798083	441.963438	-91.209323	561.746281	456.119695	-78.693038	459.696083	437.069312	-36.871264	469.769288	460.011848	-16.427386	371.852513	480.541802	-70.969639	352.934263	449.549585	-0.850452	148.041652	499.194214	-57.962488	82.553988	561.422802	146.043687	181.134468	575.924380	118.451787	138.347618	482.152814	-257.874863	1566.456165	608.993863	-341.154469	1369.705422	631.027068	-153.058578	1487.082327	608.434003	-183.661849	1545.066685	762.700806	-247.143031	1537.481138	436.951235	-215.528843	1224.561576	875.620793	-27.770093	1184.843799	711.973110	-473.673104	1293.361433	367.452988	-239.889185	1182.229872	384.236421
2	0.005000	-145.253093	1009.598161	716.802124	-161.993429	1035.721758	484.406419	-308.718145	1065.708719	662.258645	-319.968491	1070.429297	565.733533	-238.206317	750.911037	753.905159	-182.785836	734.201516	724.158532	-215.493896	634.662733	713.351631	-258.448280	644.335530	738.292110	-309.096361	521.381774	722.004095	-432.735600	489.846394	744.291913	-411.118349	431.649636	724.205173	-514.138360	409.527020	702.039040	-530.272191	463.081564	733.951483	-726.789168	403.922540	703.073815	-775.239825	459.202689	652.268155	-742.277712	242.120215	605.294992	-757.322190	267.388748	707.842896	-115.079208	785.642358	426.525456	-91.209844	803.497668	465.896740	-56.748405	710.275258	494.236272	-87.583865	682.214899	443.370177	-76.002921	559.695205	456.513398	-64.677711	456.629147	437.841851	-22.239422	466.516215	459.987526	-3.175900	368.516190	480.404483	-58.016714	349.916839	450.249698	10.678440	144.703677	498.710540	-48.524594	78.857206	559.755536	156.798518	175.896425	575.837522	128.804234	133.931506	482.096592	-242.597568	1563.546819	607.875740	-326.128993	1367.016572	630.173669	-137.457967	1484.039794	607.922432	-169.519613	1542.441157	761.868071	-232.561810	1533.867918	435.895469	-202.990652	1221.907571	875.352303	-14.888188	1177.490301	712.391478	-456.462058	1287.158122	366.299882	-221.656303	1177.375237	383.432516
3	0.010000	-130.884261	1006.237226	716.297295	-147.705549	1034.533093	483.980368	-294.055805	1061.922371	661.565587	-305.866110	1066.978583	565.826187	-220.625412	747.223384	754.186683	-164.746326	731.006345	723.386579	-195.605515	631.055370	714.722286	-238.396728	639.940278	740.222136	-288.097132	516.125932	722.926447	-410.164741	486.917685	745.095453	-391.738260	432.616381	724.763347	-494.758271	410.493765	702.597215	-509.622745	463.844630	733.849063	-707.060116	409.821724	702.281894	-756.179181	465.666195	648.895057	-725.977336	246.181973	608.845995	-742.633390	273.812317	709.047840	-99.155540	783.891637	427.140681	-74.323927	801.653173	466.608431	-40.451371	709.542991	495.216978	-71.572113	680.582797	446.179028	-60.218753	557.572486	456.319062	-50.681260	453.885238	438.055765	-8.011261	462.982986	460.295165	9.665898	364.517105	480.937241	-45.380006	347.129752	450.086115	19.830650	140.328567	498.412153	-38.976458	75.939191	560.236445	166.720878	170.483673	575.837764	138.617270	128.944882	481.928564	-226.706606	1559.711918	606.529769	-311.358602	1363.855978	629.319052	-122.316873	1480.226044	607.600381	-155.096529	1539.065114	761.295571	-217.168575	1529.843850	434.895156	-190.701799	1219.106631	875.056529	-2.183482	1168.949282	713.132578	-439.326484	1281.376660	361.937552	-203.863656	1172.202972	382.301180
4	0.015000	-114.982321	1003.115686	715.213659	-132.737120	1031.256522	483.675641	-278.660682	1057.674102	661.821250	-290.778300	1062.935063	565.964689	-202.822014	742.538484	754.534763	-146.197257	727.686631	723.260752	-173.824040	629.227540	717.064501	-216.688292	635.287891	742.435170	-266.303859	511.458690	724.322099	-389.166841	484.836170	745.536266	-371.622707	432.207813	725.171936	-474.642718	410.085197	703.005804	-488.364168	463.750134	733.619800	-686.361660	415.306334	701.748714	-733.069423	471.548002	646.578675	-708.641714	250.534134	611.235303	-724.830772	280.515382	711.237353	-83.173665	781.806268	427.795534	-59.265407	800.857498	466.156447	-25.026695	708.141581	495.226941	-55.925173	678.705543	447.979344	-45.172803	554.450722	456.820938	-35.922699	451.368900	437.739337	6.263276	459.281135	460.695748	22.614726	360.157015	480.859873	-32.765207	344.019083	450.481108	29.386869	136.374358	497.998499	-31.290702	72.182632	558.206347	175.785734	164.466023	576.014515	147.156186	123.803765	481.793504	-211.400735	1555.716638	605.376425	-296.334958	1360.182851	628.828828	-107.177011	1476.726553	606.963802	-140.264480	1535.810610	760.745164	-201.790195	1525.553648	434.012305	-178.295911	1215.544412	874.584310	10.173708	1161.027155	714.010638	-421.120485	1275.000266	361.329704	-186.091247	1166.090553	381.181821
5	0.020000	-100.484035	999.586612	714.725313	-117.488598	1028.413291	483.416206	-263.992805	1053.462101	661.619912	-276.190231	1058.921692	565.928804	-184.254632	738.571798	754.624846	-127.304224	724.228942	723.589576	-153.008401	625.893527	718.179905	-196.114435	631.029807	743.351269	-244.539149	507.172338	725.485578	-366.244630	481.969348	745.991951	-351.163549	431.275216	725.760824	-454.183560	409.152600	703.594691	-466.810932	463.947064	733.638901	-666.355109	421.482067	700.764483	-710.859425	476.841828	643.827973	-689.761805	253.902275	614.905607	-703.643448	287.404518	715.484913	-67.615603	779.996069	428.454035	-43.195602	798.315425	466.234645	-8.853152	706.621425	495.411337	-39.752369	676.537193	448.516782	-29.548180	551.827293	457.567606	-21.468541	447.930438	438.233386	21.167506	455.501492	461.076699	35.226387	355.965852	481.067926	-20.225285	340.672267	450.175152	37.405291	132.656847	497.435696	-24.780086	69.425903	557.585721	183.196318	158.133994	576.258913	154.975638	117.505413	481.778434	-196.517463	1551.605655	604.347346	-281.355098	1356.734316	628.311771	-92.005753	1472.358673	606.405600	-125.244779	1531.844074	760.424199	-186.937651	1520.987978	433.119845	-165.709534	1212.047613	874.009232	22.303113	1152.704665	715.125324	-403.479173	1267.004724	361.656851	-167.942664	1160.596723	380.706062
6	0.025000	-85.248814	995.812220	713.597634	-104.568174	1025.844079	481.418152	-249.716699	1049.096648	661.096447	-262.024706	1054.680264	566.004855	-165.571604	734.370359	754.412285	-108.232822	720.619850	724.181574	-132.817191	621.490974	718.526926	-176.277783	626.568234	743.216087	-222.648633	500.987690	726.354279	-344.780206	480.403808	745.564512	-330.637317	430.411840	726.025211	-433.657328	408.289224	703.859079	-444.542220	463.556913	733.525045	-644.913956	426.890855	699.960545	-687.348750	481.858030	642.095498	-670.278859	257.130025	617.944960	-687.498953	293.334278	716.111867	-52.467556	776.476895	428.902885	-26.826730	795.869826	465.663521	8.211438	703.693147	495.551323	-25.066775	674.277063	448.073632	-13.959346	548.432173	457.571635	-6.852178	444.569777	438.403174	35.822728	451.119249	461.731599	47.717483	351.461062	480.883626	-7.462212	337.683636	450.051234	44.686398	130.423645	496.470568	-20.497437	72.079949	556.909327	191.050826	150.348150	575.681287	160.645898	110.418131	481.767542	-181.894295	1547.423642	603.374165	-266.515402	1352.698873	627.943180	-77.264230	1468.064504	606.078938	-111.635915	1528.003977	759.315372	-171.586046	1516.002496	432.071283	-153.993890	1208.931430	873.669226	34.313733	1143.694552	716.464301	-385.432224	1260.626318	357.569799	-149.609030	1154.083317	379.492564
7	0.030000	-70.338423	991.600469	713.736717	-89.427074	1022.699671	480.709564	-234.373617	1043.945856	661.172288	-246.991944	1050.149500	566.125236	-147.241978	728.998351	754.607284	-89.148646	716.845925	724.845270	-112.908999	616.457527	718.563994	-156.458284	621.297496	742.839719	-200.447312	496.405198	727.194422	-322.014524	478.602781	746.504553	-309.442996	429.133021	726.466688	-412.463007	407.010405	704.300555	-422.103389	462.902903	733.287329	-623.922096	431.769579	698.898491	-664.855689	486.229776	639.016484	-651.510353	260.874821	621.151686	-667.494265	298.990630	717.446106	-37.085866	773.404030	427.488114	-9.984092	792.566397	464.888612	24.970227	701.248364	495.093456	-11.017326	671.715859	447.263935	1.638038	545.208113	458.181569	8.685145	441.957470	436.956988	49.901005	446.768595	462.319641	60.394911	347.482199	481.128646	5.218709	333.840561	450.145841	50.590908	128.960466	495.481230	-16.511510	72.540828	556.255265	198.080518	141.491163	574.790743	166.498636	101.464155	481.454457	-167.368740	1543.215274	602.388518	-252.093109	1348.671761	627.149421	-62.065142	1463.383100	605.920293	-96.452934	1523.439540	758.663771	-155.818331	1510.716032	431.138345	-141.836358	1205.005352	873.697006	46.296835	1134.318274	717.746735	-367.163946	1252.505043	356.789671	-130.890189	1147.474932	378.883902
8	0.035000	-55.116715	986.710525	714.318827	-74.905916	1018.856448	480.458902	-220.388009	1039.507769	660.694730	-232.949554	1045.627077	565.845653	-128.985357	724.336685	754.609468	-70.217290	712.893737	725.389189	-92.942419	611.230829	718.749539	-136.805482	616.261019	742.664138	-178.505953	491.123062	727.644954	-297.673140	474.111948	746.691346	-287.882323	428.522075	727.366368	-390.902334	406.399459	705.200236	-399.340046	462.582542	733.217679	-600.352902	435.487580	698.207496	-640.572744	488.771849	636.573267	-631.394262	263.384893	623.967979	-646.577555	305.657033	720.899848	-22.244765	770.264249	427.523228	5.987913	789.188901	463.915383	41.766570	698.348268	494.268333	3.247047	668.644284	446.701736	16.864943	541.848331	458.182414	24.047380	439.073621	435.830187	64.568870	442.678733	462.949860	72.618186	342.979447	482.541018	17.415825	330.336007	449.926194	56.563778	125.304799	495.995328	-12.477400	72.742470	558.376916	204.706550	132.141438	575.556515	171.975287	92.445773	482.032838	-152.778304	1539.025226	601.322041	-236.988120	1343.876869	626.797044	-47.187252	1458.745317	604.774452	-82.468738	1519.008368	757.992680	-140.789461	1505.720521	430.356379	-130.391626	1200.970881	873.653813	58.670473	1125.087207	718.574512	-349.036881	1244.616904	353.410956	-112.015767	1140.191940	378.252974
9	0.040000	-40.459254	982.797781	712.433972	-59.424420	1014.790512	479.422932	-205.792755	1033.957814	660.666517	-218.530612	1041.150714	565.976282	-109.709285	719.586862	754.595988	-51.604350	708.749857	725.621854	-72.055097	608.333461	719.050666	-115.122310	612.859762	743.635797	-156.595912	485.408301	727.794276	-276.149051	472.388150	746.851344	-266.283185	427.556403	728.382112	-369.303197	405.433786	706.215979	-376.345242	461.865177	733.233397	-577.229312	439.368389	698.152863	-616.371540	492.354070	634.716959	-610.678484	266.400058	626.948301	-626.541825	309.974099	721.904131	-7.159954	765.954559	427.607595	21.982954	785.917479	462.571191	58.783002	694.819874	493.239041	18.577410	664.853043	447.001075	32.828967	538.061274	457.854860	39.516546	436.191904	435.254123	79.692514	438.843980	463.651433	84.295542	338.537223	483.859818	29.404233	327.462606	449.983002	62.184653	122.526840	497.489454	-8.825949	73.563698	560.414726	211.283427	121.875118	576.381392	175.925945	84.436555	482.785757	-137.283747	1533.923766	600.193170	-221.671440	1339.415841	626.376715	-31.942555	1454.267822	604.636345	-67.650180	1514.383373	757.759157	-125.851843	1500.489709	429.459136	-119.434530	1196.619820	873.576002	69.017101	1115.186916	720.738212	-330.249639	1235.709725	351.283801	-92.587102	1133.098920	377.458121
